<mxfile host="app.diagrams.net" modified="2021-11-06T00:02:19.583Z" agent="5.0 (Windows NT 10.0; Win64; x64) AppleWebKit/537.36 (KHTML, like Gecko) Chrome/95.0.4638.69 Safari/537.36" etag="NM3bGjel9p1KgfQsMayx" version="15.7.0" type="github">
  <diagram id="nEx--UYVgbSAvsFg95oE" name="Page-1">
    <mxGraphModel dx="2584" dy="2256" grid="1" gridSize="10" guides="1" tooltips="1" connect="1" arrows="1" fold="1" page="1" pageScale="1" pageWidth="827" pageHeight="1169" math="0" shadow="0">
      <root>
        <mxCell id="0" />
        <mxCell id="1" parent="0" />
        <mxCell id="7zCApSuqMhU8I_25LISZ-11" style="edgeStyle=orthogonalEdgeStyle;rounded=0;orthogonalLoop=1;jettySize=auto;html=1;exitX=1;exitY=0.5;exitDx=0;exitDy=0;entryX=0.5;entryY=0;entryDx=0;entryDy=0;" parent="1" source="etUnX1Ghb0rkaaxVV59l-1" target="7zCApSuqMhU8I_25LISZ-5" edge="1">
          <mxGeometry relative="1" as="geometry" />
        </mxCell>
        <mxCell id="etUnX1Ghb0rkaaxVV59l-1" value="Server" style="swimlane;fontStyle=1;align=center;verticalAlign=top;childLayout=stackLayout;horizontal=1;startSize=26;horizontalStack=0;resizeParent=1;resizeParentMax=0;resizeLast=0;collapsible=1;marginBottom=0;fillColor=default;strokeColor=default;fontColor=default;" parent="1" vertex="1">
          <mxGeometry x="85" y="-560" width="230" height="140" as="geometry" />
        </mxCell>
        <mxCell id="etUnX1Ghb0rkaaxVV59l-2" value="- ServerSocket serverSocket&#xa;- ArrayList&lt;ClientManager&gt; clientsList&#xa;&#xa;&#xa;&#xa;&#xa;&#xa;&#xa;" style="text;strokeColor=default;fillColor=default;align=left;verticalAlign=top;spacingLeft=4;spacingRight=4;overflow=hidden;rotatable=0;points=[[0,0.5],[1,0.5]];portConstraint=eastwest;fontColor=default;" parent="etUnX1Ghb0rkaaxVV59l-1" vertex="1">
          <mxGeometry y="26" width="230" height="44" as="geometry" />
        </mxCell>
        <mxCell id="etUnX1Ghb0rkaaxVV59l-3" value="" style="line;strokeWidth=1;fillColor=default;align=left;verticalAlign=middle;spacingTop=-1;spacingLeft=3;spacingRight=3;rotatable=0;labelPosition=right;points=[];portConstraint=eastwest;strokeColor=default;fontColor=default;" parent="etUnX1Ghb0rkaaxVV59l-1" vertex="1">
          <mxGeometry y="70" width="230" height="8" as="geometry" />
        </mxCell>
        <mxCell id="etUnX1Ghb0rkaaxVV59l-4" value="+ Server(): void&#xa;+ startServer(): void&#xa;+ closeServer(): void" style="text;strokeColor=default;fillColor=default;align=left;verticalAlign=top;spacingLeft=4;spacingRight=4;overflow=hidden;rotatable=0;points=[[0,0.5],[1,0.5]];portConstraint=eastwest;fontColor=default;" parent="etUnX1Ghb0rkaaxVV59l-1" vertex="1">
          <mxGeometry y="78" width="230" height="62" as="geometry" />
        </mxCell>
        <mxCell id="7zCApSuqMhU8I_25LISZ-18" style="edgeStyle=orthogonalEdgeStyle;rounded=0;orthogonalLoop=1;jettySize=auto;html=1;exitX=0.5;exitY=1;exitDx=0;exitDy=0;entryX=0.5;entryY=0;entryDx=0;entryDy=0;" parent="1" source="etUnX1Ghb0rkaaxVV59l-5" target="etUnX1Ghb0rkaaxVV59l-11" edge="1">
          <mxGeometry relative="1" as="geometry" />
        </mxCell>
        <mxCell id="etUnX1Ghb0rkaaxVV59l-5" value="Expression_tree" style="swimlane;fontStyle=1;align=center;verticalAlign=top;childLayout=stackLayout;horizontal=1;startSize=26;horizontalStack=0;resizeParent=1;resizeParentMax=0;resizeLast=0;collapsible=1;marginBottom=0;fontColor=default;strokeColor=default;fillColor=default;" parent="1" vertex="1">
          <mxGeometry x="310" y="20" width="220" height="120" as="geometry" />
        </mxCell>
        <mxCell id="etUnX1Ghb0rkaaxVV59l-6" value="+ String : postfix  &#xa;" style="text;strokeColor=default;fillColor=default;align=left;verticalAlign=top;spacingLeft=4;spacingRight=4;overflow=hidden;rotatable=0;points=[[0,0.5],[1,0.5]];portConstraint=eastwest;fontColor=default;" parent="etUnX1Ghb0rkaaxVV59l-5" vertex="1">
          <mxGeometry y="26" width="220" height="26" as="geometry" />
        </mxCell>
        <mxCell id="etUnX1Ghb0rkaaxVV59l-7" value="+Solve(): int&#xa;+operador(char f): boolean&#xa;+get_root(): Node root" style="text;strokeColor=default;fillColor=default;align=left;verticalAlign=top;spacingLeft=4;spacingRight=4;overflow=hidden;rotatable=0;points=[[0,0.5],[1,0.5]];portConstraint=eastwest;fontColor=default;" parent="etUnX1Ghb0rkaaxVV59l-5" vertex="1">
          <mxGeometry y="52" width="220" height="68" as="geometry" />
        </mxCell>
        <mxCell id="etUnX1Ghb0rkaaxVV59l-11" value="Node" style="swimlane;fontStyle=1;align=center;verticalAlign=top;childLayout=stackLayout;horizontal=1;startSize=26;horizontalStack=0;resizeParent=1;resizeParentMax=0;resizeLast=0;collapsible=1;marginBottom=0;labelBackgroundColor=default;fontColor=default;strokeColor=default;fillColor=default;" parent="1" vertex="1">
          <mxGeometry x="330" y="250" width="180" height="180" as="geometry" />
        </mxCell>
        <mxCell id="etUnX1Ghb0rkaaxVV59l-12" value="+ String: data&#xa;+ Node: left&#xa;+Node: right" style="text;strokeColor=default;fillColor=default;align=left;verticalAlign=top;spacingLeft=4;spacingRight=4;overflow=hidden;rotatable=0;points=[[0,0.5],[1,0.5]];portConstraint=eastwest;labelBackgroundColor=default;fontColor=default;" parent="etUnX1Ghb0rkaaxVV59l-11" vertex="1">
          <mxGeometry y="26" width="180" height="54" as="geometry" />
        </mxCell>
        <mxCell id="etUnX1Ghb0rkaaxVV59l-13" value="+ getData(): String&#xa;+SetData(): void&#xa;+getLeft(): Node&#xa;+ setLeft(Node nodo): void&#xa;+getRight(): Node&#xa;+ setRight(Node nodo):void" style="text;strokeColor=default;fillColor=default;align=left;verticalAlign=top;spacingLeft=4;spacingRight=4;overflow=hidden;rotatable=0;points=[[0,0.5],[1,0.5]];portConstraint=eastwest;labelBackgroundColor=default;fontColor=default;" parent="etUnX1Ghb0rkaaxVV59l-11" vertex="1">
          <mxGeometry y="80" width="180" height="100" as="geometry" />
        </mxCell>
        <mxCell id="7zCApSuqMhU8I_25LISZ-9" style="edgeStyle=orthogonalEdgeStyle;rounded=0;orthogonalLoop=1;jettySize=auto;html=1;exitX=0.5;exitY=0;exitDx=0;exitDy=0;entryX=0;entryY=0.5;entryDx=0;entryDy=0;" parent="1" source="7zCApSuqMhU8I_25LISZ-1" target="etUnX1Ghb0rkaaxVV59l-1" edge="1">
          <mxGeometry relative="1" as="geometry" />
        </mxCell>
        <mxCell id="7zCApSuqMhU8I_25LISZ-13" style="edgeStyle=orthogonalEdgeStyle;rounded=0;orthogonalLoop=1;jettySize=auto;html=1;exitX=1;exitY=0.25;exitDx=0;exitDy=0;entryX=0;entryY=0.5;entryDx=0;entryDy=0;" parent="1" source="7zCApSuqMhU8I_25LISZ-1" target="7zCApSuqMhU8I_25LISZ-6" edge="1">
          <mxGeometry relative="1" as="geometry" />
        </mxCell>
        <mxCell id="7zCApSuqMhU8I_25LISZ-1" value="Client" style="swimlane;fontStyle=1;align=center;verticalAlign=top;childLayout=stackLayout;horizontal=1;startSize=26;horizontalStack=0;resizeParent=1;resizeParentMax=0;resizeLast=0;collapsible=1;marginBottom=0;fillColor=default;strokeColor=default;fontColor=default;" parent="1" vertex="1">
          <mxGeometry x="-190" y="-330" width="330" height="278" as="geometry" />
        </mxCell>
        <mxCell id="7zCApSuqMhU8I_25LISZ-2" value="- Socket socket&#xa;- DataInputStream input&#xa;- DataOutputStream  output&#xa;+ JFrame root&#xa;+ JLabel textField&#xa;+ Jframe record&#xa;+ String identificador&#xa;+ boolean beggin&#xa;+ boolean showing_result&#xa;+ boolean isrecord&#xa;&#xa;&#xa;&#xa;&#xa;&#xa;&#xa;&#xa;&#xa;&#xa;" style="text;strokeColor=default;fillColor=default;align=left;verticalAlign=top;spacingLeft=4;spacingRight=4;overflow=hidden;rotatable=0;points=[[0,0.5],[1,0.5]];portConstraint=eastwest;fontColor=default;" parent="7zCApSuqMhU8I_25LISZ-1" vertex="1">
          <mxGeometry y="26" width="330" height="164" as="geometry" />
        </mxCell>
        <mxCell id="7zCApSuqMhU8I_25LISZ-3" value="" style="line;strokeWidth=1;fillColor=default;align=left;verticalAlign=middle;spacingTop=-1;spacingLeft=3;spacingRight=3;rotatable=0;labelPosition=right;points=[];portConstraint=eastwest;strokeColor=default;fontColor=default;" parent="7zCApSuqMhU8I_25LISZ-1" vertex="1">
          <mxGeometry y="190" width="330" height="8" as="geometry" />
        </mxCell>
        <mxCell id="7zCApSuqMhU8I_25LISZ-4" value="+ startClient(String host, int gate): void&#xa;+ closeClient(): void&#xa;+ sendMessage(String msg): void&#xa;+ createInterface(String nameFrame): void&#xa;+ createRecord(String recordClient, String nameFrame):void&#xa;" style="text;strokeColor=default;fillColor=default;align=left;verticalAlign=top;spacingLeft=4;spacingRight=4;overflow=hidden;rotatable=0;points=[[0,0.5],[1,0.5]];portConstraint=eastwest;fontColor=default;" parent="7zCApSuqMhU8I_25LISZ-1" vertex="1">
          <mxGeometry y="198" width="330" height="80" as="geometry" />
        </mxCell>
        <mxCell id="7zCApSuqMhU8I_25LISZ-19" style="edgeStyle=orthogonalEdgeStyle;rounded=0;orthogonalLoop=1;jettySize=auto;html=1;exitX=0.5;exitY=1;exitDx=0;exitDy=0;entryX=0.5;entryY=0;entryDx=0;entryDy=0;" parent="1" source="7zCApSuqMhU8I_25LISZ-5" target="etUnX1Ghb0rkaaxVV59l-5" edge="1">
          <mxGeometry relative="1" as="geometry" />
        </mxCell>
        <mxCell id="7zCApSuqMhU8I_25LISZ-5" value="ClientManager" style="swimlane;fontStyle=1;align=center;verticalAlign=top;childLayout=stackLayout;horizontal=1;startSize=26;horizontalStack=0;resizeParent=1;resizeParentMax=0;resizeLast=0;collapsible=1;marginBottom=0;fillColor=default;strokeColor=default;fontColor=default;" parent="1" vertex="1">
          <mxGeometry x="260" y="-311" width="320" height="240" as="geometry" />
        </mxCell>
        <mxCell id="7zCApSuqMhU8I_25LISZ-6" value="- Socket clientSocket&#xa;- DataInputStream input&#xa;- DataOutputStream  output&#xa;+ int identificador&#xa;- Stack expresions&#xa;&#xa;&#xa;&#xa;&#xa;&#xa;&#xa;&#xa;&#xa;&#xa;" style="text;strokeColor=default;fillColor=default;align=left;verticalAlign=top;spacingLeft=4;spacingRight=4;overflow=hidden;rotatable=0;points=[[0,0.5],[1,0.5]];portConstraint=eastwest;fontColor=default;" parent="7zCApSuqMhU8I_25LISZ-5" vertex="1">
          <mxGeometry y="26" width="320" height="84" as="geometry" />
        </mxCell>
        <mxCell id="7zCApSuqMhU8I_25LISZ-7" value="" style="line;strokeWidth=1;fillColor=default;align=left;verticalAlign=middle;spacingTop=-1;spacingLeft=3;spacingRight=3;rotatable=0;labelPosition=right;points=[];portConstraint=eastwest;strokeColor=default;fontColor=default;" parent="7zCApSuqMhU8I_25LISZ-5" vertex="1">
          <mxGeometry y="110" width="320" height="8" as="geometry" />
        </mxCell>
        <mxCell id="7zCApSuqMhU8I_25LISZ-8" value="+ ClientManager(Socket socket, int gate): void&#xa;+ startManager(): void&#xa;+ closeChannel(): void&#xa;+ run(): void&#xa;+ normalConvertor(String expresion): List&lt;String&gt;&#xa;+ polishNotation(List&lt;String&gt; expresion): List&lt;String&gt;&#xa;+ getOrder(String str): int&#xa;+ polish(List list): String&#xa;&#xa;" style="text;strokeColor=default;fillColor=default;align=left;verticalAlign=top;spacingLeft=4;spacingRight=4;overflow=hidden;rotatable=0;points=[[0,0.5],[1,0.5]];portConstraint=eastwest;fontColor=default;" parent="7zCApSuqMhU8I_25LISZ-5" vertex="1">
          <mxGeometry y="118" width="320" height="122" as="geometry" />
        </mxCell>
        <mxCell id="7zCApSuqMhU8I_25LISZ-10" value="Recibe una solicitud de Conexión" style="text;html=1;align=center;verticalAlign=middle;resizable=0;points=[];autosize=1;strokeColor=none;fillColor=none;" parent="1" vertex="1">
          <mxGeometry x="-135" y="-510" width="190" height="20" as="geometry" />
        </mxCell>
        <mxCell id="7zCApSuqMhU8I_25LISZ-12" value="&lt;div&gt;A cada cliente le asigna un ClienManager &lt;br&gt;&lt;/div&gt;&lt;div&gt;para que lo administre&lt;/div&gt;" style="text;html=1;align=center;verticalAlign=middle;resizable=0;points=[];autosize=1;strokeColor=none;fillColor=none;" parent="1" vertex="1">
          <mxGeometry x="340" y="-530" width="230" height="30" as="geometry" />
        </mxCell>
        <mxCell id="7zCApSuqMhU8I_25LISZ-14" value="&lt;div&gt;Envia solicitudes&lt;/div&gt;&lt;div&gt;(Cálculo Matemático)&lt;br&gt;&lt;/div&gt;" style="text;html=1;align=center;verticalAlign=middle;resizable=0;points=[];autosize=1;strokeColor=none;fillColor=none;" parent="1" vertex="1">
          <mxGeometry x="135" y="-295" width="130" height="30" as="geometry" />
        </mxCell>
        <mxCell id="7zCApSuqMhU8I_25LISZ-16" style="edgeStyle=orthogonalEdgeStyle;rounded=0;orthogonalLoop=1;jettySize=auto;html=1;exitX=0;exitY=0.5;exitDx=0;exitDy=0;" parent="1" source="7zCApSuqMhU8I_25LISZ-8" edge="1">
          <mxGeometry relative="1" as="geometry">
            <mxPoint x="140" y="-140" as="targetPoint" />
          </mxGeometry>
        </mxCell>
        <mxCell id="7zCApSuqMhU8I_25LISZ-17" value="&lt;div&gt;Contesta la solicitud&lt;/div&gt;&lt;div&gt;(Cálculo Matematico)&lt;br&gt;&lt;/div&gt;" style="text;html=1;align=center;verticalAlign=middle;resizable=0;points=[];autosize=1;strokeColor=none;fillColor=none;" parent="1" vertex="1">
          <mxGeometry x="135" y="-120" width="130" height="30" as="geometry" />
        </mxCell>
        <mxCell id="7zCApSuqMhU8I_25LISZ-20" value="&lt;div&gt;Solicita crear un Árbol&lt;/div&gt;&lt;div&gt;y su solución&lt;br&gt;&lt;/div&gt;" style="text;html=1;align=center;verticalAlign=middle;resizable=0;points=[];autosize=1;strokeColor=none;fillColor=none;" parent="1" vertex="1">
          <mxGeometry x="430" y="-40" width="130" height="30" as="geometry" />
        </mxCell>
        <mxCell id="7zCApSuqMhU8I_25LISZ-21" value="&lt;div&gt;Se apoya en Nodos&lt;/div&gt;&lt;div&gt;para crear el Árbol&lt;br&gt;&lt;/div&gt;" style="text;html=1;align=center;verticalAlign=middle;resizable=0;points=[];autosize=1;strokeColor=none;fillColor=none;" parent="1" vertex="1">
          <mxGeometry x="430" y="180" width="120" height="30" as="geometry" />
        </mxCell>
        <mxCell id="7zCApSuqMhU8I_25LISZ-22" value="CSVManager" style="swimlane;fontStyle=1;align=center;verticalAlign=top;childLayout=stackLayout;horizontal=1;startSize=26;horizontalStack=0;resizeParent=1;resizeParentMax=0;resizeLast=0;collapsible=1;marginBottom=0;fillColor=default;strokeColor=default;fontColor=default;" parent="1" vertex="1">
          <mxGeometry x="840" y="-311" width="320" height="240" as="geometry" />
        </mxCell>
        <mxCell id="7zCApSuqMhU8I_25LISZ-23" value="- Socket clientSocket&#xa;- DataInputStream input&#xa;- DataOutputStream  output&#xa;+ int identificador&#xa;- Stack expresions&#xa;&#xa;&#xa;&#xa;&#xa;&#xa;&#xa;&#xa;&#xa;&#xa;" style="text;strokeColor=default;fillColor=default;align=left;verticalAlign=top;spacingLeft=4;spacingRight=4;overflow=hidden;rotatable=0;points=[[0,0.5],[1,0.5]];portConstraint=eastwest;fontColor=default;" parent="7zCApSuqMhU8I_25LISZ-22" vertex="1">
          <mxGeometry y="26" width="320" height="84" as="geometry" />
        </mxCell>
        <mxCell id="7zCApSuqMhU8I_25LISZ-24" value="" style="line;strokeWidth=1;fillColor=default;align=left;verticalAlign=middle;spacingTop=-1;spacingLeft=3;spacingRight=3;rotatable=0;labelPosition=right;points=[];portConstraint=eastwest;strokeColor=default;fontColor=default;" parent="7zCApSuqMhU8I_25LISZ-22" vertex="1">
          <mxGeometry y="110" width="320" height="8" as="geometry" />
        </mxCell>
        <mxCell id="7zCApSuqMhU8I_25LISZ-25" value="+ ClientManager(Socket socket, int gate): void&#xa;+ startManager(): void&#xa;+ closeChannel(): void&#xa;+ run(): void&#xa;+ normalConvertor(String expresion): List&lt;String&gt;&#xa;+ polishNotation(List&lt;String&gt; expresion): List&lt;String&gt;&#xa;+ getOrder(String str): int&#xa;+ polish(List list): String&#xa;&#xa;" style="text;strokeColor=default;fillColor=default;align=left;verticalAlign=top;spacingLeft=4;spacingRight=4;overflow=hidden;rotatable=0;points=[[0,0.5],[1,0.5]];portConstraint=eastwest;fontColor=default;" parent="7zCApSuqMhU8I_25LISZ-22" vertex="1">
          <mxGeometry y="118" width="320" height="122" as="geometry" />
        </mxCell>
        <mxCell id="7zCApSuqMhU8I_25LISZ-26" style="edgeStyle=orthogonalEdgeStyle;rounded=0;orthogonalLoop=1;jettySize=auto;html=1;exitX=1;exitY=0.5;exitDx=0;exitDy=0;entryX=0;entryY=0.5;entryDx=0;entryDy=0;" parent="1" source="7zCApSuqMhU8I_25LISZ-6" target="7zCApSuqMhU8I_25LISZ-23" edge="1">
          <mxGeometry relative="1" as="geometry" />
        </mxCell>
        <mxCell id="7zCApSuqMhU8I_25LISZ-27" value="&lt;div&gt;Pide almacenar las solicitudes del &lt;br&gt;&lt;/div&gt;&lt;div&gt;cliente o su historial&lt;br&gt;&lt;/div&gt;" style="text;html=1;align=center;verticalAlign=middle;resizable=0;points=[];autosize=1;strokeColor=none;fillColor=none;" parent="1" vertex="1">
          <mxGeometry x="610" y="-295" width="190" height="30" as="geometry" />
        </mxCell>
        <mxCell id="7zCApSuqMhU8I_25LISZ-28" style="edgeStyle=orthogonalEdgeStyle;rounded=0;orthogonalLoop=1;jettySize=auto;html=1;exitX=0;exitY=0.5;exitDx=0;exitDy=0;entryX=1;entryY=0.75;entryDx=0;entryDy=0;" parent="1" source="7zCApSuqMhU8I_25LISZ-25" target="7zCApSuqMhU8I_25LISZ-5" edge="1">
          <mxGeometry relative="1" as="geometry" />
        </mxCell>
        <mxCell id="7zCApSuqMhU8I_25LISZ-29" value="Envía el historial del cliente" style="text;html=1;align=center;verticalAlign=middle;resizable=0;points=[];autosize=1;strokeColor=none;fillColor=none;" parent="1" vertex="1">
          <mxGeometry x="630" y="-120" width="160" height="20" as="geometry" />
        </mxCell>
      </root>
    </mxGraphModel>
  </diagram>
</mxfile>
